<svg id="Layer_1" data-name="Layer 1" xmlns="http://www.w3.org/2000/svg" viewBox="0 0 300.22 63.06"><defs><style>.cls-1,.cls-2,.cls-3{fill:#fff;}.cls-1,.cls-3{stroke:#fff;}.cls-1{stroke-width:0.35px;}.cls-3{stroke-width:0.45px;}</style></defs><title>CVTI white logo</title><path class="cls-1" d="M7091.14,7211.84a5.65,5.65,0,0,1-1.78-4.37,5.91,5.91,0,0,1,1.65-4,6,6,0,0,1,4.5-1.58,13,13,0,0,1,2.14.18,13.43,13.43,0,0,0,1.51.22c.16,0,.19.08.19.16s-.05.3-.07.83,0,1.3-.05,1.52,0,.31-.13.31-.12-.1-.12-.31a2,2,0,0,0-.62-1.5,4.86,4.86,0,0,0-2.95-.85,4.52,4.52,0,0,0-3.4,1.08,5,5,0,0,0-1.33,3.85,5.34,5.34,0,0,0,5.33,5.41,3.42,3.42,0,0,0,2.57-.74,2.94,2.94,0,0,0,.55-1.24c0-.16.06-.22.15-.22s.1.1.1.22a15.14,15.14,0,0,1-.33,1.89c-.09.28-.11.31-.38.43a8.73,8.73,0,0,1-2.66.34A6.82,6.82,0,0,1,7091.14,7211.84Z" transform="translate(-7049.92 -7168.06)"/><path class="cls-1" d="M7102.58,7207.37c0-1.95,0-2.3,0-2.7s-.1-.64-.53-.7l-.44,0a.12.12,0,0,1-.11-.1c0-.07.06-.1.21-.1.59,0,1.43,0,1.51,0h3.1c.25,0,.48-.06.59-.08s.12-.06.17-.06.06.06.06.12-.07.24-.1.59c0,.12,0,.68-.07.83s-.06.13-.12.13-.11-.06-.11-.16a1.32,1.32,0,0,0-.07-.44c-.09-.21-.22-.3-.93-.39-.22,0-1.73,0-1.87,0s-.08,0-.08.13v3.41c0,.09,0,.13.08.13s1.87,0,2.17,0,.5,0,.63-.17.15-.16.19-.16.08,0,.08.1a5.91,5.91,0,0,0-.11.69c0,.25-.06.73-.06.81s0,.24-.11.24-.09,0-.09-.12a1.07,1.07,0,0,0-.06-.41c0-.18-.16-.33-.67-.38-.35-.05-1.74-.06-2-.06s-.09,0-.09.08v1.05c0,.43,0,1.89,0,2.14,0,.84.27,1,1.55,1a4.12,4.12,0,0,0,1.3-.14.94.94,0,0,0,.59-.87c0-.14.06-.19.14-.19s.08.1.08.19a10.78,10.78,0,0,1-.17,1.21c-.09.33-.23.33-.73.33-1,0-1.72,0-2.25-.05s-.89,0-1.08,0c0,0-.28,0-.56,0l-.76,0c-.13,0-.2,0-.2-.1a.1.1,0,0,1,.1-.11,2.76,2.76,0,0,0,.4-.06c.25,0,.28-.29.34-.66a27.14,27.14,0,0,0,.07-2.72Z" transform="translate(-7049.92 -7168.06)"/><path class="cls-1" d="M7111.26,7211.52c0,1,.15,1.34.5,1.43a3,3,0,0,0,.65.07.11.11,0,0,1,.11.11c0,.07-.09.1-.24.1-.74,0-1.25,0-1.37,0s-.67,0-1.26,0c-.13,0-.2,0-.2-.1a.1.1,0,0,1,.1-.11,2,2,0,0,0,.53-.07c.33-.09.37-.43.37-1.57v-7.18c0-.51.07-.64.18-.64s.37.25.5.38,2.09,2.22,4.1,4.28c1.29,1.33,2.67,2.82,3.07,3.24l-.13-6.29c0-.81-.09-1.09-.49-1.17a4.74,4.74,0,0,0-.63-.06.1.1,0,0,1-.11-.11c0-.08.11-.09.26-.09.59,0,1.21,0,1.35,0s.58,0,1.11,0c.13,0,.24,0,.24.09a.15.15,0,0,1-.15.11,1.45,1.45,0,0,0-.31,0c-.43.09-.46.34-.46,1.1l0,7.35c0,.82,0,.9-.1.9s-.27-.11-1-.77c-.13-.12-2-2-3.38-3.39s-3-3.12-3.37-3.56Z" transform="translate(-7049.92 -7168.06)"/><path class="cls-1" d="M7125.85,7209.58c0,1.21,0,2.2.06,2.72,0,.37.1.6.5.66a4.71,4.71,0,0,0,.59.06c.09,0,.1.06.1.11s-.06.1-.21.1c-.7,0-1.53,0-1.6,0s-1,0-1.35,0c-.15,0-.2,0-.2-.1a.09.09,0,0,1,.1-.09,1.67,1.67,0,0,0,.38-.06c.27-.06.34-.31.39-.68.06-.52.06-1.51.06-2.72v-5.27l-1.88,0c-.81,0-1.12.11-1.31.4a1.71,1.71,0,0,0-.21.4c0,.1-.07.12-.13.12a.1.1,0,0,1-.09-.1c0-.14.26-1.26.28-1.36s.09-.24.13-.24a5.5,5.5,0,0,0,.58.15c.37,0,.87.06,1,.06h4.9a6.37,6.37,0,0,0,.93-.06l.37-.06c.06,0,.06.07.06.15,0,.38,0,1.28,0,1.43s-.06.16-.12.16-.09,0-.1-.22l0-.13c0-.39-.32-.67-1.56-.7l-1.62,0Z" transform="translate(-7049.92 -7168.06)"/><path class="cls-1" d="M7132,7207.37c0-1.95,0-2.3,0-2.7s-.11-.64-.53-.7l-.45,0a.12.12,0,0,1-.1-.1c0-.07.06-.1.21-.1.59,0,1.43,0,1.5,0h3.1a5.66,5.66,0,0,0,.59-.08c.06,0,.12-.06.18-.06s.06.06.06.12a5.91,5.91,0,0,0-.11.59c0,.12,0,.68-.07.83s-.06.13-.12.13-.1-.06-.1-.16a1.64,1.64,0,0,0-.07-.44c-.09-.21-.23-.3-.93-.39-.23,0-1.73,0-1.88,0s-.07,0-.07.13v3.41c0,.09,0,.13.07.13s1.88,0,2.17,0a1,1,0,0,0,.64-.17c.08-.09.14-.16.19-.16s.07,0,.07.1-.07.28-.1.69c0,.25-.06.73-.06.81s0,.24-.12.24-.09,0-.09-.12a1.07,1.07,0,0,0-.06-.41c0-.18-.16-.33-.66-.38s-1.74-.06-2-.06-.09,0-.09.08v1.05c0,.43,0,1.89,0,2.14,0,.84.26,1,1.55,1a4.12,4.12,0,0,0,1.3-.14,1,1,0,0,0,.59-.87c0-.14.06-.19.13-.19s.09.1.09.19a11.15,11.15,0,0,1-.18,1.21c-.09.33-.22.33-.72.33-1,0-1.73,0-2.26-.05s-.89,0-1.08,0c0,0-.28,0-.56,0l-.75,0c-.13,0-.21,0-.21-.1a.1.1,0,0,1,.1-.11,2.76,2.76,0,0,0,.4-.06c.25,0,.28-.29.34-.66a23.76,23.76,0,0,0,.08-2.72Z" transform="translate(-7049.92 -7168.06)"/><path class="cls-1" d="M7140.15,7207.37c0-1.95,0-2.3,0-2.7s-.1-.64-.53-.7l-.44,0a.12.12,0,0,1-.11-.1c0-.07.06-.1.21-.1.59,0,1.46,0,1.53,0l1.63,0a4.28,4.28,0,0,1,2.42.54,2.24,2.24,0,0,1,.9,1.72,3.65,3.65,0,0,1-1.59,2.86c1.06,1.33,2,2.46,2.71,3.25a2.41,2.41,0,0,0,1.45.87,2.61,2.61,0,0,0,.46,0,.11.11,0,0,1,.11.11c0,.07-.07.1-.31.1h-.81a2.61,2.61,0,0,1-1.39-.25,6.7,6.7,0,0,1-1.77-1.85c-.54-.68-1.12-1.49-1.4-1.83a.2.2,0,0,0-.18-.07l-1.65,0c-.06,0-.09,0-.09.1v.3c0,1.21,0,2.18.06,2.7.05.37.12.6.52.66a4.62,4.62,0,0,0,.57.06.1.1,0,0,1,.11.11c0,.05-.06.1-.21.1-.71,0-1.54,0-1.59,0s-.89,0-1.29,0c-.13,0-.21,0-.21-.1a.1.1,0,0,1,.11-.11,1.84,1.84,0,0,0,.4-.06c.25-.06.28-.29.34-.66a27.14,27.14,0,0,0,.07-2.72Zm1.12,1.06a.17.17,0,0,0,.09.16,4.18,4.18,0,0,0,1.43.2,1.69,1.69,0,0,0,1-.23,2.23,2.23,0,0,0,.78-1.91,2.17,2.17,0,0,0-2.24-2.47,7,7,0,0,0-.93.07.17.17,0,0,0-.11.15Z" transform="translate(-7049.92 -7168.06)"/><path class="cls-1" d="M7154.87,7207.37c0-1.95,0-2.3,0-2.7s-.11-.64-.53-.7l-.45,0a.12.12,0,0,1-.1-.1c0-.07.06-.1.21-.1.59,0,1.4,0,1.47,0h3.37a3.46,3.46,0,0,0,.59-.06c.07,0,.13-.08.18-.08s.08.06.08.12-.05.24-.1.59c0,.12,0,.68-.06.83s-.06.13-.12.13-.1-.06-.1-.14a1.29,1.29,0,0,0-.12-.48,1,1,0,0,0-.88-.37l-2.13,0c-.07,0-.1,0-.1.14v3.42c0,.07,0,.12.09.12l1.77,0h.59c.31,0,.49-.07.6-.22s.12-.13.17-.13.07,0,.07.1a5,5,0,0,0-.12.69c0,.25,0,.76,0,.84s0,.26-.12.26-.09-.06-.09-.12a1.56,1.56,0,0,0-.09-.46c-.06-.18-.26-.34-.66-.4s-1.86,0-2.08,0-.09,0-.09.12v1c0,1.24,0,2.23.06,2.72s.11.6.47.66a5.11,5.11,0,0,0,.59.06.1.1,0,0,1,.1.11c0,.05-.06.1-.2.1-.73,0-1.57,0-1.63,0s-.88,0-1.28,0c-.13,0-.21,0-.21-.1a.1.1,0,0,1,.11-.11,2.63,2.63,0,0,0,.39-.06c.25,0,.28-.29.34-.66a23.76,23.76,0,0,0,.08-2.72Z" transform="translate(-7049.92 -7168.06)"/><path class="cls-1" d="M7166.44,7203.56c2.92,0,5.14,1.79,5.14,4.71a5,5,0,0,1-5.21,5.12,4.81,4.81,0,0,1-5.08-4.93A5,5,0,0,1,7166.44,7203.56Zm.29,9.31c1.17,0,3.52-.62,3.52-4.25,0-3-1.83-4.59-3.88-4.59s-3.74,1.36-3.74,4.09C7162.63,7211,7164.39,7212.87,7166.73,7212.87Z" transform="translate(-7049.92 -7168.06)"/><path class="cls-1" d="M7174.29,7207.37c0-1.95,0-2.3,0-2.7s-.1-.64-.53-.7l-.44,0a.12.12,0,0,1-.1-.1c0-.07.06-.1.2-.1.59,0,1.46,0,1.54,0l1.62,0a4.26,4.26,0,0,1,2.42.54,2.21,2.21,0,0,1,.9,1.72,3.65,3.65,0,0,1-1.59,2.86c1.06,1.33,2,2.46,2.71,3.25a2.43,2.43,0,0,0,1.45.87,2.68,2.68,0,0,0,.46,0,.12.12,0,0,1,.12.11c0,.07-.08.1-.31.1h-.82a2.57,2.57,0,0,1-1.38-.25,6.56,6.56,0,0,1-1.77-1.85c-.55-.68-1.13-1.49-1.41-1.83a.18.18,0,0,0-.17-.07l-1.66,0c-.05,0-.08,0-.08.1v.3c0,1.21,0,2.18.05,2.7.05.37.12.6.52.66a4.76,4.76,0,0,0,.58.06c.09,0,.1.06.1.11s-.06.1-.21.1c-.71,0-1.53,0-1.59,0s-.89,0-1.29,0c-.13,0-.2,0-.2-.1a.1.1,0,0,1,.1-.11,1.84,1.84,0,0,0,.4-.06c.25-.06.28-.29.34-.66a27.14,27.14,0,0,0,.07-2.72Zm1.13,1.06a.18.18,0,0,0,.08.16,4.25,4.25,0,0,0,1.44.2,1.66,1.66,0,0,0,1-.23,2.23,2.23,0,0,0,.78-1.91,2.17,2.17,0,0,0-2.24-2.47,7,7,0,0,0-.93.07.16.16,0,0,0-.1.15Z" transform="translate(-7049.92 -7168.06)"/><path class="cls-1" d="M7192.55,7211.43c.86-2,2.84-7.13,3.16-8.19a2,2,0,0,0,.13-.56.35.35,0,0,0-.19-.34,1.81,1.81,0,0,0-.56-.06c-.09,0-.16,0-.16-.09s.09-.12.32-.12c.59,0,1.27,0,1.45,0s.72,0,1.15,0c.16,0,.25,0,.25.1s-.06.11-.17.11a1.38,1.38,0,0,0-.71.17c-.19.14-.42.39-.81,1.39-.17.41-.9,2.19-1.66,4-.9,2.16-1.56,3.75-1.9,4.47-.41.89-.47,1.13-.62,1.13s-.25-.21-.53-.92l-3.62-9.05c-.32-.82-.55-1-1.06-1.13a2.24,2.24,0,0,0-.56-.06c-.09,0-.12-.05-.12-.11s.15-.1.38-.1c.71,0,1.55,0,1.73,0s.81,0,1.37,0c.27,0,.4,0,.4.1s0,.11-.15.11a1.72,1.72,0,0,0-.56.07.3.3,0,0,0-.19.3,5.7,5.7,0,0,0,.4,1.22Z" transform="translate(-7049.92 -7168.06)"/><path class="cls-1" d="M7200,7207.37c0-1.95,0-2.3,0-2.7s-.1-.64-.53-.7l-.44,0a.12.12,0,0,1-.1-.1c0-.07.06-.1.2-.1.59,0,1.44,0,1.51,0h3.1a5.66,5.66,0,0,0,.59-.08c.06,0,.12-.06.18-.06s.06.06.06.12a5.91,5.91,0,0,0-.11.59c0,.12,0,.68-.07.83s-.06.13-.12.13-.1-.06-.1-.16a1.37,1.37,0,0,0-.08-.44c-.09-.21-.22-.3-.93-.39-.22,0-1.72,0-1.87,0s-.08,0-.08.13v3.41c0,.09,0,.13.08.13s1.87,0,2.17,0,.5,0,.63-.17.15-.16.19-.16.08,0,.08.1a4.85,4.85,0,0,0-.1.69c0,.25-.06.73-.06.81s0,.24-.12.24-.09,0-.09-.12a1.07,1.07,0,0,0-.06-.41c0-.18-.16-.33-.66-.38s-1.75-.06-2-.06c-.07,0-.09,0-.09.08v1.05c0,.43,0,1.89,0,2.14,0,.84.27,1,1.55,1a4.12,4.12,0,0,0,1.3-.14.94.94,0,0,0,.59-.87c0-.14.06-.19.14-.19s.09.1.09.19a11.15,11.15,0,0,1-.18,1.21c-.09.33-.22.33-.73.33-1,0-1.72,0-2.25-.05s-.89,0-1.08,0c0,0-.28,0-.56,0l-.75,0c-.14,0-.21,0-.21-.1a.1.1,0,0,1,.1-.11,2.76,2.76,0,0,0,.4-.06c.25,0,.28-.29.34-.66a27.14,27.14,0,0,0,.07-2.72Z" transform="translate(-7049.92 -7168.06)"/><path class="cls-1" d="M7211.17,7209.58c0,1.21,0,2.2.06,2.72,0,.37.1.6.5.66a4.9,4.9,0,0,0,.59.06c.09,0,.1.06.1.11s-.06.1-.2.1c-.71,0-1.54,0-1.61,0s-1,0-1.35,0c-.14,0-.2,0-.2-.1a.09.09,0,0,1,.1-.09,1.59,1.59,0,0,0,.38-.06c.27-.06.34-.31.39-.68.06-.52.06-1.51.06-2.72v-5.27l-1.88,0c-.81,0-1.12.11-1.31.4a2.25,2.25,0,0,0-.21.4c0,.1-.07.12-.13.12a.1.1,0,0,1-.09-.1c0-.14.27-1.26.28-1.36s.09-.24.13-.24.23.1.58.15.87.06,1,.06h4.9a6.37,6.37,0,0,0,.93-.06l.37-.06c.06,0,.06.07.06.15,0,.38-.05,1.28-.05,1.43s-.06.16-.12.16-.08,0-.1-.22V7205c0-.39-.33-.67-1.57-.7l-1.62,0Z" transform="translate(-7049.92 -7168.06)"/><path class="cls-1" d="M7217.57,7207.37c0-1.95,0-2.3,0-2.7s-.1-.64-.53-.7l-.44,0a.12.12,0,0,1-.1-.1c0-.07.06-.1.2-.1.59,0,1.44,0,1.51,0h3.1a5.66,5.66,0,0,0,.59-.08c.06,0,.12-.06.18-.06s.06.06.06.12a5.91,5.91,0,0,0-.11.59c0,.12,0,.68-.07.83s-.06.13-.12.13-.1-.06-.1-.16a1.37,1.37,0,0,0-.08-.44c-.09-.21-.22-.3-.93-.39-.22,0-1.72,0-1.87,0s-.08,0-.08.13v3.41c0,.09,0,.13.08.13s1.87,0,2.17,0,.5,0,.63-.17.15-.16.2-.16.07,0,.07.1-.07.28-.1.69c0,.25-.06.73-.06.81s0,.24-.12.24-.09,0-.09-.12a1.07,1.07,0,0,0-.06-.41c0-.18-.16-.33-.66-.38s-1.75-.06-2-.06c-.07,0-.09,0-.09.08v1.05c0,.43,0,1.89,0,2.14,0,.84.27,1,1.55,1a4.12,4.12,0,0,0,1.3-.14.94.94,0,0,0,.59-.87c0-.14.06-.19.14-.19s.09.1.09.19a11.15,11.15,0,0,1-.18,1.21c-.09.33-.22.33-.73.33-1,0-1.72,0-2.25-.05s-.89,0-1.08,0c0,0-.28,0-.56,0l-.75,0c-.14,0-.21,0-.21-.1a.1.1,0,0,1,.1-.11,2.76,2.76,0,0,0,.4-.06c.25,0,.28-.29.34-.66a27.14,27.14,0,0,0,.07-2.72Z" transform="translate(-7049.92 -7168.06)"/><path class="cls-1" d="M7225.65,7207.37c0-1.95,0-2.3,0-2.7s-.1-.64-.53-.7l-.45,0a.12.12,0,0,1-.1-.1c0-.07.06-.1.21-.1.59,0,1.46,0,1.53,0l1.63,0a4.28,4.28,0,0,1,2.42.54,2.24,2.24,0,0,1,.9,1.72,3.67,3.67,0,0,1-1.6,2.86c1.07,1.33,2,2.46,2.72,3.25a2.38,2.38,0,0,0,1.45.87,2.59,2.59,0,0,0,.45,0,.11.11,0,0,1,.12.11c0,.07-.07.1-.31.1h-.81a2.61,2.61,0,0,1-1.39-.25,6.7,6.7,0,0,1-1.77-1.85c-.54-.68-1.12-1.49-1.4-1.83a.2.2,0,0,0-.18-.07l-1.65,0c-.06,0-.09,0-.09.1v.3c0,1.21,0,2.18.06,2.7,0,.37.12.6.52.66a4.43,4.43,0,0,0,.57.06c.09,0,.1.06.1.11s-.05.1-.2.1c-.71,0-1.54,0-1.6,0s-.88,0-1.28,0c-.13,0-.21,0-.21-.1a.1.1,0,0,1,.11-.11,1.94,1.94,0,0,0,.4-.06c.25-.06.28-.29.33-.66a23.76,23.76,0,0,0,.08-2.72Zm1.12,1.06a.17.17,0,0,0,.09.16,4.14,4.14,0,0,0,1.43.2,1.66,1.66,0,0,0,1-.23,2.21,2.21,0,0,0,.79-1.91,2.17,2.17,0,0,0-2.25-2.47,7.37,7.37,0,0,0-.93.07.16.16,0,0,0-.1.15Z" transform="translate(-7049.92 -7168.06)"/><path class="cls-1" d="M7239.92,7204c.16-.41.22-.49.31-.49s.18.18.31.46c.24.53,2.32,5.71,3.12,7.62.47,1.12.82,1.28,1.1,1.37a1.82,1.82,0,0,0,.52.07c.07,0,.16,0,.16.11s-.14.1-.29.1-1.15,0-2,0c-.25,0-.46,0-.46-.09s0-.06.09-.09a.24.24,0,0,0,.12-.34l-1.17-2.88a.11.11,0,0,0-.12-.07h-3a.14.14,0,0,0-.13.1l-.74,2a2.82,2.82,0,0,0-.19.84c0,.25.22.34.45.34h.11c.11,0,.14,0,.14.11s-.08.1-.2.1c-.31,0-1,0-1.16,0s-.78,0-1.32,0c-.16,0-.25,0-.25-.1a.12.12,0,0,1,.12-.11,2.53,2.53,0,0,0,.38,0c.6-.07.85-.51,1.1-1.15Zm1.45,5.22c.06,0,.06,0,0-.08l-1.28-3.44c-.07-.2-.15-.2-.22,0l-1.21,3.44c0,.05,0,.08,0,.08Z" transform="translate(-7049.92 -7168.06)"/><path class="cls-1" d="M7247.94,7211.52c0,1,.15,1.34.5,1.43a3,3,0,0,0,.65.07.1.1,0,0,1,.1.11c0,.07-.09.1-.23.1-.74,0-1.26,0-1.38,0s-.66,0-1.25,0c-.13,0-.21,0-.21-.1a.11.11,0,0,1,.11-.11,2,2,0,0,0,.53-.07c.32-.09.37-.43.37-1.57v-7.18c0-.51.07-.64.17-.64s.37.25.51.38,2.09,2.22,4.1,4.28c1.28,1.33,2.67,2.82,3.07,3.24l-.13-6.29c0-.81-.09-1.09-.49-1.17a4.86,4.86,0,0,0-.64-.06.1.1,0,0,1-.1-.11c0-.08.1-.09.25-.09.59,0,1.21,0,1.36,0s.58,0,1.11,0c.13,0,.23,0,.23.09a.14.14,0,0,1-.14.11,1.41,1.41,0,0,0-.31,0c-.43.09-.46.34-.46,1.1l0,7.35c0,.82,0,.9-.1.9s-.27-.11-1-.77c-.14-.12-2-2-3.38-3.39s-3-3.12-3.37-3.56Z" transform="translate(-7049.92 -7168.06)"/><path class="cls-1" d="M7094.18,7226.5c0,1.42,0,2.58.08,3.2,0,.43.13.75.57.81a6.34,6.34,0,0,0,.67.06c.09,0,.11.05.11.09s-.07.12-.23.12c-.81,0-1.74-.05-1.82-.05s-1,.05-1.44.05c-.17,0-.24,0-.24-.12s0-.09.12-.09a2.22,2.22,0,0,0,.44-.06c.3-.06.37-.38.43-.81.07-.62.07-1.78.07-3.2v-6.25l-2.18,0c-.92,0-1.27.12-1.51.48a3.52,3.52,0,0,0-.25.45c0,.12-.09.15-.15.15s-.07,0-.07-.13.3-1.42.32-1.54.09-.28.15-.28a2.82,2.82,0,0,0,.65.18c.43.05,1,.07,1.17.07h5.53a5.39,5.39,0,0,0,1-.07l.41-.07c.08,0,.08.09.08.17,0,.45-.05,1.47-.05,1.63s0,.19-.1.19-.1,0-.12-.25v-.16c0-.45-.4-.79-1.82-.82l-1.86,0Z" transform="translate(-7049.92 -7168.06)"/><path class="cls-1" d="M7100.84,7224.92c0-1.95,0-2.3,0-2.7s-.1-.64-.53-.7l-.44,0a.12.12,0,0,1-.11-.1c0-.07.06-.1.21-.1.59,0,1.46,0,1.54,0l1.62,0a4.26,4.26,0,0,1,2.42.54,2.24,2.24,0,0,1,.9,1.72,3.65,3.65,0,0,1-1.59,2.86c1.06,1.33,2,2.47,2.71,3.25a2.41,2.41,0,0,0,1.45.87,2.61,2.61,0,0,0,.46,0,.11.11,0,0,1,.11.11c0,.07-.07.1-.31.1h-.81a2.61,2.61,0,0,1-1.39-.25,6.7,6.7,0,0,1-1.77-1.85c-.54-.68-1.12-1.49-1.4-1.83a.2.2,0,0,0-.18-.07l-1.65,0c-.06,0-.09,0-.09.1v.3c0,1.21,0,2.18.06,2.7,0,.37.12.6.52.66a4.62,4.62,0,0,0,.57.06.1.1,0,0,1,.11.11s-.06.1-.21.1c-.71,0-1.53-.05-1.59-.05s-.89.05-1.29.05c-.13,0-.2,0-.2-.1a.1.1,0,0,1,.1-.11,1.84,1.84,0,0,0,.4-.06c.25-.06.28-.29.34-.66a27.14,27.14,0,0,0,.07-2.72ZM7102,7226a.17.17,0,0,0,.09.16,4.18,4.18,0,0,0,1.43.2,1.69,1.69,0,0,0,1-.23,2.22,2.22,0,0,0,.78-1.91,2.17,2.17,0,0,0-2.24-2.47,7,7,0,0,0-.93.07.17.17,0,0,0-.11.15Z" transform="translate(-7049.92 -7168.06)"/><path class="cls-1" d="M7113.05,7221.54c.16-.41.22-.49.31-.49s.18.18.31.46c.23.53,2.32,5.71,3.11,7.62.47,1.12.83,1.28,1.11,1.37a1.74,1.74,0,0,0,.52.07c.07,0,.16,0,.16.11s-.15.1-.3.1-1.15,0-2.05,0c-.25,0-.46,0-.46-.09s0-.06.09-.09a.23.23,0,0,0,.12-.34l-1.17-2.88c0-.05,0-.07-.11-.07h-3a.13.13,0,0,0-.13.1l-.74,2a2.54,2.54,0,0,0-.19.84c0,.25.22.34.44.34h.12c.1,0,.13.05.13.11s-.07.1-.19.1c-.31,0-1-.05-1.17-.05s-.78.05-1.31.05c-.16,0-.25,0-.25-.1a.12.12,0,0,1,.12-.11,2.53,2.53,0,0,0,.38,0c.59-.07.84-.51,1.09-1.15Zm1.44,5.22c.06,0,.06,0,.05-.08l-1.29-3.44c-.07-.2-.14-.2-.22,0l-1.21,3.44s0,.08.05.08Z" transform="translate(-7049.92 -7168.06)"/><path class="cls-1" d="M7121.06,7229.07c0,1,.15,1.34.51,1.43a2.91,2.91,0,0,0,.64.07.11.11,0,0,1,.11.11c0,.07-.09.1-.24.1-.74,0-1.25-.05-1.37-.05s-.66.05-1.26.05c-.13,0-.2,0-.2-.1a.1.1,0,0,1,.1-.11,2,2,0,0,0,.53-.07c.33-.09.37-.43.37-1.57v-7.18c0-.51.08-.64.18-.64s.37.25.5.38,2.1,2.22,4.1,4.29c1.29,1.32,2.68,2.81,3.07,3.23l-.13-6.29c0-.81-.09-1.09-.49-1.17a4.74,4.74,0,0,0-.63-.06c-.09,0-.1-.07-.1-.11s.1-.09.25-.09c.59,0,1.21,0,1.36,0s.57,0,1.1,0c.14,0,.24,0,.24.09a.15.15,0,0,1-.15.11,1.45,1.45,0,0,0-.31,0c-.43.09-.46.34-.46,1.1l0,7.35c0,.82,0,.9-.1.9s-.27-.11-1-.77c-.13-.12-2-2-3.38-3.39s-3-3.12-3.36-3.56Z" transform="translate(-7049.92 -7168.06)"/><path class="cls-1" d="M7132,7230.6c-.18-.09-.19-.13-.19-.47,0-.62.06-1.12.07-1.33s0-.21.1-.21.12.05.12.15a1.68,1.68,0,0,0,0,.46,1.91,1.91,0,0,0,2.05,1.24c1.28,0,1.95-.72,1.95-1.67s-.49-1.33-1.64-2.18l-.59-.45c-1.41-1-1.86-1.81-1.86-2.68,0-1.48,1.16-2.36,2.88-2.36a6.63,6.63,0,0,1,1.34.14,1.64,1.64,0,0,0,.46.06c.1,0,.13,0,.13.09a13.08,13.08,0,0,0-.06,1.33c0,.19,0,.28-.1.28s-.11-.06-.12-.16a2.62,2.62,0,0,0-.19-.62c-.09-.15-.52-.62-1.69-.62-.94,0-1.72.47-1.72,1.36s.4,1.25,1.68,2.12l.37.25c1.58,1.08,2.12,1.95,2.12,3a2.45,2.45,0,0,1-1.21,2.14,4,4,0,0,1-2.06.44A4.77,4.77,0,0,1,7132,7230.6Z" transform="translate(-7049.92 -7168.06)"/><path class="cls-1" d="M7141.91,7227.13c0,1.21,0,2.2.06,2.72,0,.37.08.6.47.66a5.11,5.11,0,0,0,.59.06.1.1,0,0,1,.1.11s-.06.1-.2.1c-.73,0-1.57-.05-1.63-.05s-.88.05-1.28.05c-.13,0-.21,0-.21-.1a.1.1,0,0,1,.1-.11,1.84,1.84,0,0,0,.4-.06c.25-.06.3-.29.34-.66.06-.52.08-1.51.08-2.72v-2.21c0-1.95,0-2.3,0-2.7s-.14-.62-.42-.68a2.3,2.3,0,0,0-.39-.05.11.11,0,0,1-.11-.1c0-.07.06-.1.21-.1l1.31,0,1.3,0c.15,0,.21,0,.21.1a.12.12,0,0,1-.11.1,1.44,1.44,0,0,0-.32,0c-.36.08-.43.26-.46.7s0,.75,0,2.7Z" transform="translate(-7049.92 -7168.06)"/><path class="cls-1" d="M7149.54,7227.13c0,1.21,0,2.2.06,2.72,0,.37.1.6.5.66a4.9,4.9,0,0,0,.59.06c.09,0,.1.06.1.11s-.06.1-.2.1c-.71,0-1.54-.05-1.61-.05s-1,.05-1.35.05c-.14,0-.2,0-.2-.1a.09.09,0,0,1,.1-.09,1.76,1.76,0,0,0,.39-.06c.26-.06.33-.31.38-.68.06-.52.06-1.51.06-2.72v-5.27l-1.88,0c-.81,0-1.12.11-1.31.4a2.25,2.25,0,0,0-.21.4c0,.1-.07.12-.13.12a.1.1,0,0,1-.09-.1c0-.14.27-1.26.28-1.36s.09-.24.13-.24.23.1.58.15.87.06,1,.06h4.9a6.37,6.37,0,0,0,.93-.06l.37-.06c.06,0,.06.07.06.15,0,.38-.05,1.28-.05,1.43s-.06.16-.11.16-.09,0-.11-.22v-.13c0-.39-.33-.67-1.57-.7l-1.62,0Z" transform="translate(-7049.92 -7168.06)"/><path class="cls-1" d="M7157.13,7227.13c0,1.21,0,2.2.05,2.72,0,.37.09.6.48.66a5.11,5.11,0,0,0,.59.06.1.1,0,0,1,.1.11s-.06.1-.21.1c-.72,0-1.56-.05-1.62-.05s-.88.05-1.28.05c-.14,0-.21,0-.21-.1a.1.1,0,0,1,.1-.11,1.84,1.84,0,0,0,.4-.06c.25-.06.3-.29.34-.66.06-.52.08-1.51.08-2.72v-2.21c0-1.95,0-2.3,0-2.7s-.14-.62-.42-.68a2.4,2.4,0,0,0-.4-.05.1.1,0,0,1-.1-.1c0-.07.06-.1.21-.1l1.31,0,1.3,0c.15,0,.21,0,.21.1a.12.12,0,0,1-.11.1,1.39,1.39,0,0,0-.32,0c-.36.08-.43.26-.46.7s0,.75,0,2.7Z" transform="translate(-7049.92 -7168.06)"/><path class="cls-1" d="M7165.39,7221.11c2.92,0,5.14,1.79,5.14,4.71a5,5,0,0,1-5.21,5.12,4.81,4.81,0,0,1-5.08-4.93A5,5,0,0,1,7165.39,7221.11Zm.3,9.31c1.16,0,3.51-.62,3.51-4.25,0-3-1.83-4.59-3.88-4.59s-3.74,1.36-3.74,4.09C7161.58,7228.59,7163.34,7230.42,7165.69,7230.42Z" transform="translate(-7049.92 -7168.06)"/><path class="cls-1" d="M7174,7229.07c0,1,.15,1.34.5,1.43a3,3,0,0,0,.65.07.1.1,0,0,1,.1.11c0,.07-.09.1-.23.1-.74,0-1.26-.05-1.38-.05s-.66.05-1.25.05c-.13,0-.21,0-.21-.1a.11.11,0,0,1,.11-.11,2,2,0,0,0,.53-.07c.32-.09.37-.43.37-1.57v-7.18c0-.51.07-.64.17-.64s.37.25.5.38,2.1,2.22,4.11,4.29c1.28,1.32,2.67,2.81,3.07,3.23l-.13-6.29c0-.81-.09-1.09-.49-1.17a4.86,4.86,0,0,0-.64-.06.1.1,0,0,1-.1-.11c0-.08.1-.09.25-.09.59,0,1.21,0,1.36,0s.58,0,1.11,0c.13,0,.23,0,.23.09a.14.14,0,0,1-.14.11,1.41,1.41,0,0,0-.31,0c-.43.09-.46.34-.46,1.1l0,7.35c0,.82,0,.9-.1.9s-.27-.11-1-.77c-.14-.12-2-2-3.38-3.39s-3-3.12-3.37-3.56Z" transform="translate(-7049.92 -7168.06)"/><path class="cls-1" d="M7193,7221.54c.16-.41.22-.49.31-.49s.17.18.31.46c.23.53,2.31,5.71,3.11,7.62.47,1.12.83,1.28,1.11,1.37a1.72,1.72,0,0,0,.51.07c.08,0,.17,0,.17.11s-.15.1-.3.1-1.15,0-2.05,0c-.25,0-.46,0-.46-.09s0-.06.09-.09a.24.24,0,0,0,.12-.34l-1.17-2.88a.11.11,0,0,0-.12-.07h-3a.13.13,0,0,0-.13.1l-.74,2a2.54,2.54,0,0,0-.19.84c0,.25.22.34.44.34h.12c.1,0,.13.05.13.11s-.07.1-.19.1c-.31,0-1-.05-1.17-.05s-.78.05-1.31.05c-.17,0-.25,0-.25-.1a.12.12,0,0,1,.11-.11,2.77,2.77,0,0,0,.39,0c.59-.07.84-.51,1.09-1.15Zm1.44,5.22c.06,0,.06,0,.05-.08l-1.29-3.44c-.07-.2-.15-.2-.22,0l-1.21,3.44s0,.08.05.08Z" transform="translate(-7049.92 -7168.06)"/><path class="cls-1" d="M7201.1,7229.07c0,1,.15,1.34.5,1.43a3,3,0,0,0,.65.07.11.11,0,0,1,.11.11c0,.07-.09.1-.24.1-.74,0-1.26-.05-1.37-.05s-.67.05-1.26.05c-.13,0-.21,0-.21-.1a.11.11,0,0,1,.11-.11,2,2,0,0,0,.53-.07c.32-.09.37-.43.37-1.57v-7.18c0-.51.07-.64.18-.64s.36.25.5.38,2.09,2.22,4.1,4.29c1.29,1.32,2.67,2.81,3.07,3.23l-.13-6.29c0-.81-.09-1.09-.49-1.17a4.74,4.74,0,0,0-.63-.06.1.1,0,0,1-.11-.11c0-.08.11-.09.25-.09.59,0,1.21,0,1.36,0s.58,0,1.11,0c.13,0,.24,0,.24.09a.15.15,0,0,1-.15.11,1.45,1.45,0,0,0-.31,0c-.43.09-.46.34-.46,1.1l0,7.35c0,.82,0,.9-.1.9s-.27-.11-1-.77c-.13-.12-2-2-3.38-3.39s-3-3.12-3.37-3.56Z" transform="translate(-7049.92 -7168.06)"/><path class="cls-1" d="M7212.26,7224.92c0-1.95,0-2.3,0-2.7s-.1-.64-.53-.7l-.44,0a.12.12,0,0,1-.11-.1c0-.07.06-.1.21-.1.59,0,1.43,0,1.51,0s1,0,1.74,0c1.3,0,3.67-.12,5.21,1.43a4.41,4.41,0,0,1,1.27,3.19,5,5,0,0,1-1.4,3.53,5.27,5.27,0,0,1-3.95,1.44c-.56,0-1.25,0-1.81-.07l-1.06-.08s-.27,0-.54,0l-.78,0c-.13,0-.2,0-.2-.1a.1.1,0,0,1,.1-.11,1.84,1.84,0,0,0,.4-.06c.25-.06.28-.29.34-.66a27.14,27.14,0,0,0,.07-2.72Zm1.18,1.36c0,1.33,0,2.49,0,2.73a2.35,2.35,0,0,0,.14.9c.17.23.62.5,2.16.5a4.35,4.35,0,0,0,3-1.14,4.21,4.21,0,0,0,1-3,4.35,4.35,0,0,0-1.23-3.14,5.34,5.34,0,0,0-4.2-1.4,3.93,3.93,0,0,0-.79.08.24.24,0,0,0-.16.26Z" transform="translate(-7049.92 -7168.06)"/><path class="cls-1" d="M7229.63,7226.5c0,1.42,0,2.58.08,3.2,0,.43.13.75.57.81a6.58,6.58,0,0,0,.67.06c.09,0,.12.05.12.09s-.08.12-.24.12c-.81,0-1.74-.05-1.82-.05s-1,.05-1.44.05c-.16,0-.24,0-.24-.12s0-.09.12-.09a2.22,2.22,0,0,0,.44-.06c.3-.06.37-.38.43-.81.07-.62.07-1.78.07-3.2v-2.6c0-2.3,0-2.72,0-3.19s-.18-.75-.51-.82a1.64,1.64,0,0,0-.45-.06c-.06,0-.12,0-.12-.09s.07-.12.23-.12c.49,0,1.42,0,1.49,0s1,0,1.45,0c.16,0,.24,0,.24.12s-.06.09-.12.09a2.12,2.12,0,0,0-.37,0c-.4.07-.52.33-.55.84s0,.89,0,3.19Z" transform="translate(-7049.92 -7168.06)"/><path class="cls-1" d="M7234.45,7229.07c0,1,.14,1.34.5,1.43a2.93,2.93,0,0,0,.65.07.1.1,0,0,1,.1.11c0,.07-.09.1-.24.1-.73,0-1.25-.05-1.37-.05s-.66.05-1.25.05c-.14,0-.21,0-.21-.1a.11.11,0,0,1,.1-.11,2,2,0,0,0,.54-.07c.32-.09.36-.43.36-1.57v-7.18c0-.51.08-.64.18-.64s.37.25.5.38,2.1,2.22,4.11,4.29c1.28,1.32,2.67,2.81,3.07,3.23l-.14-6.29c0-.81-.08-1.09-.48-1.17a4.86,4.86,0,0,0-.64-.06c-.09,0-.1-.07-.1-.11s.1-.09.25-.09c.59,0,1.21,0,1.36,0s.57,0,1.11,0c.13,0,.23,0,.23.09a.15.15,0,0,1-.15.11,1.51,1.51,0,0,0-.31,0c-.42.09-.45.34-.45,1.1l0,7.35c0,.82,0,.9-.11.9s-.26-.11-1-.77c-.13-.12-2-2-3.38-3.39s-3-3.12-3.36-3.56Z" transform="translate(-7049.92 -7168.06)"/><path class="cls-1" d="M7249.27,7227.13c0,1.21,0,2.2.06,2.72,0,.37.1.6.5.66a4.9,4.9,0,0,0,.59.06c.09,0,.1.06.1.11s-.06.1-.2.1c-.71,0-1.54-.05-1.61-.05s-1,.05-1.35.05c-.14,0-.2,0-.2-.1a.09.09,0,0,1,.1-.09,1.59,1.59,0,0,0,.38-.06c.27-.06.34-.31.39-.68.06-.52.06-1.51.06-2.72v-5.27l-1.88,0c-.81,0-1.12.11-1.31.4a2.25,2.25,0,0,0-.21.4c0,.1-.07.12-.13.12a.1.1,0,0,1-.09-.1c0-.14.27-1.26.28-1.36s.09-.24.13-.24a5.5,5.5,0,0,0,.58.15c.37,0,.87.06,1,.06h4.9a6.37,6.37,0,0,0,.93-.06l.37-.06c.06,0,.06.07.06.15,0,.38-.05,1.28-.05,1.43s-.06.16-.12.16-.08,0-.1-.22v-.13c-.05-.39-.33-.67-1.57-.7l-1.62,0Z" transform="translate(-7049.92 -7168.06)"/><path class="cls-1" d="M7255.38,7224.92c0-1.95,0-2.3,0-2.7s-.1-.64-.53-.7l-.45,0a.12.12,0,0,1-.1-.1c0-.07.06-.1.21-.1.59,0,1.43,0,1.5,0s2.81,0,3.1,0a5.66,5.66,0,0,0,.59-.08c.06,0,.12-.06.18-.06s.06.06.06.12-.07.24-.1.59c0,.12-.05.68-.08.83s-.06.13-.12.13-.1-.06-.1-.16a1.32,1.32,0,0,0-.07-.44c-.09-.21-.22-.3-.93-.39-.22,0-1.73,0-1.88,0s-.07,0-.07.13v3.41c0,.09,0,.13.07.13s1.88,0,2.17,0a1,1,0,0,0,.64-.18c.09-.09.15-.16.19-.16s.07,0,.07.1-.07.28-.1.69c0,.25-.06.73-.06.81s0,.24-.12.24-.09,0-.09-.12a1.27,1.27,0,0,0-.05-.41c-.05-.18-.17-.33-.67-.38-.35-.05-1.74-.06-2-.06s-.09,0-.09.09v1c0,.43,0,1.89,0,2.14,0,.84.26,1,1.55,1a4.12,4.12,0,0,0,1.3-.14.94.94,0,0,0,.59-.87c0-.14.06-.19.13-.19s.09.1.09.19a9.12,9.12,0,0,1-.18,1.21c-.09.33-.22.33-.72.33-1,0-1.73,0-2.26-.05s-.88,0-1.08,0c0,0-.28,0-.56,0l-.75,0c-.13,0-.21,0-.21-.1a.1.1,0,0,1,.11-.11,3,3,0,0,0,.4-.06c.25,0,.28-.29.33-.66a23.76,23.76,0,0,0,.08-2.72Z" transform="translate(-7049.92 -7168.06)"/><path class="cls-1" d="M7269.86,7227.58c0-1,0-1.17-.56-1.27a3.25,3.25,0,0,0-.44,0,.13.13,0,0,1-.11-.11c0-.08.06-.1.21-.1.59,0,1.46,0,1.53,0l1.27,0c.15,0,.21,0,.21.1a.13.13,0,0,1-.1.11,1.47,1.47,0,0,0-.33,0c-.35.06-.46.25-.49.69s0,.77,0,1.3v1.4c0,.58,0,.59-.18.68a6.52,6.52,0,0,1-2.76.56,6.61,6.61,0,0,1-4.28-1.34,4.8,4.8,0,0,1-1.55-3.57,4.69,4.69,0,0,1,2.17-4.12,6.55,6.55,0,0,1,3.46-.8,10.7,10.7,0,0,1,2,.21,5.48,5.48,0,0,0,1,.13c.13,0,.16.06.16.12a17.24,17.24,0,0,0-.08,1.77c0,.21-.05.27-.14.27s-.09-.08-.09-.2a1.88,1.88,0,0,0-.3-.82c-.32-.48-1.31-1-3-1a4.14,4.14,0,0,0-2.72.81,3.92,3.92,0,0,0-1.28,3.16,5,5,0,0,0,1.37,3.47,4.64,4.64,0,0,0,3.32,1.32,3.27,3.27,0,0,0,1.4-.24c.17-.09.27-.15.27-.38Z" transform="translate(-7049.92 -7168.06)"/><path class="cls-1" d="M7274.6,7224.92c0-1.95,0-2.3,0-2.7s-.11-.64-.53-.7l-.45,0a.12.12,0,0,1-.1-.1c0-.07.06-.1.21-.1.59,0,1.46,0,1.53,0l1.63,0a4.28,4.28,0,0,1,2.42.54,2.24,2.24,0,0,1,.9,1.72,3.67,3.67,0,0,1-1.6,2.86c1.07,1.33,2,2.47,2.72,3.25a2.38,2.38,0,0,0,1.45.87,2.59,2.59,0,0,0,.45,0,.11.11,0,0,1,.12.11c0,.07-.07.1-.31.1h-.81a2.61,2.61,0,0,1-1.39-.25,6.7,6.7,0,0,1-1.77-1.85c-.55-.68-1.12-1.49-1.4-1.83a.2.2,0,0,0-.18-.07l-1.65,0c-.06,0-.09,0-.09.1v.3c0,1.21,0,2.18.06,2.7,0,.37.12.6.52.66a4.43,4.43,0,0,0,.57.06c.09,0,.1.06.1.11s-.05.1-.2.1c-.71,0-1.54-.05-1.6-.05s-.88.05-1.28.05c-.13,0-.21,0-.21-.1a.1.1,0,0,1,.11-.11,1.76,1.76,0,0,0,.39-.06c.26-.06.28-.29.34-.66a23.76,23.76,0,0,0,.08-2.72Zm1.12,1.06a.17.17,0,0,0,.09.16,4.14,4.14,0,0,0,1.43.2,1.66,1.66,0,0,0,1-.23,2.2,2.2,0,0,0,.79-1.91,2.17,2.17,0,0,0-2.25-2.47,7.37,7.37,0,0,0-.93.07.16.16,0,0,0-.1.15Z" transform="translate(-7049.92 -7168.06)"/><path class="cls-1" d="M7286.81,7221.54c.16-.41.22-.49.31-.49s.17.18.31.46c.23.53,2.31,5.71,3.11,7.62.47,1.12.83,1.28,1.11,1.37a1.72,1.72,0,0,0,.51.07c.08,0,.17,0,.17.11s-.15.1-.3.1-1.15,0-2.05,0c-.25,0-.46,0-.46-.09s0-.06.09-.09a.24.24,0,0,0,.12-.34l-1.17-2.88a.11.11,0,0,0-.12-.07h-3a.15.15,0,0,0-.14.1l-.73,2a2.58,2.58,0,0,0-.2.84c0,.25.23.34.45.34h.12c.1,0,.13.05.13.11s-.08.1-.19.1c-.31,0-1-.05-1.17-.05s-.78.05-1.31.05c-.17,0-.25,0-.25-.1a.11.11,0,0,1,.11-.11,2.77,2.77,0,0,0,.39,0c.59-.07.84-.51,1.09-1.15Zm1.44,5.22c.06,0,.06,0,.05-.08l-1.29-3.44c-.07-.2-.15-.2-.22,0l-1.21,3.44s0,.08,0,.08Z" transform="translate(-7049.92 -7168.06)"/><path class="cls-1" d="M7296.16,7227.13c0,1.21,0,2.2.06,2.72.05.37.11.6.51.66a4.71,4.71,0,0,0,.59.06.1.1,0,0,1,.1.11s-.06.1-.21.1c-.71,0-1.53-.05-1.61-.05s-1,.05-1.34.05c-.15,0-.21,0-.21-.1s0-.09.11-.09a1.67,1.67,0,0,0,.38-.06c.27-.06.34-.31.38-.68.06-.52.06-1.51.06-2.72v-5.27l-1.87,0c-.81,0-1.12.11-1.31.4a1.71,1.71,0,0,0-.21.4c0,.1-.08.12-.13.12a.1.1,0,0,1-.09-.1c0-.14.26-1.26.28-1.36s.09-.24.13-.24a5.5,5.5,0,0,0,.58.15c.37,0,.87.06,1,.06h4.91a6.48,6.48,0,0,0,.93-.06c.19,0,.3-.06.36-.06s.06.07.06.15c0,.38,0,1.28,0,1.43s-.06.16-.12.16-.09,0-.1-.22l0-.13c0-.39-.32-.67-1.56-.7l-1.63,0Z" transform="translate(-7049.92 -7168.06)"/><path class="cls-1" d="M7303.75,7227.13c0,1.21,0,2.2.06,2.72,0,.37.09.6.47.66a5.33,5.33,0,0,0,.59.06.1.1,0,0,1,.11.11s-.06.1-.21.1c-.72,0-1.56-.05-1.62-.05s-.89.05-1.29.05c-.13,0-.2,0-.2-.1a.1.1,0,0,1,.1-.11,1.84,1.84,0,0,0,.4-.06c.25-.06.29-.29.34-.66.06-.52.07-1.51.07-2.72v-2.21c0-1.95,0-2.3,0-2.7s-.13-.62-.41-.68a2.4,2.4,0,0,0-.4-.05.1.1,0,0,1-.1-.1c0-.07.06-.1.2-.1l1.32,0,1.29,0c.15,0,.21,0,.21.1a.12.12,0,0,1-.1.1,1.47,1.47,0,0,0-.33,0c-.35.08-.42.26-.45.7s0,.75,0,2.7Z" transform="translate(-7049.92 -7168.06)"/><path class="cls-1" d="M7312,7221.11c2.92,0,5.13,1.79,5.13,4.71a5,5,0,0,1-5.21,5.12,4.81,4.81,0,0,1-5.07-4.93A5,5,0,0,1,7312,7221.11Zm.29,9.31c1.17,0,3.52-.62,3.52-4.25,0-3-1.83-4.59-3.89-4.59s-3.73,1.36-3.73,4.09C7308.21,7228.59,7310,7230.42,7312.31,7230.42Z" transform="translate(-7049.92 -7168.06)"/><path class="cls-1" d="M7320.65,7229.07c0,1,.15,1.34.51,1.43a2.93,2.93,0,0,0,.65.07.11.11,0,0,1,.1.11c0,.07-.09.1-.24.1-.74,0-1.25-.05-1.37-.05s-.66.05-1.26.05c-.13,0-.2,0-.2-.1a.1.1,0,0,1,.1-.11,2,2,0,0,0,.53-.07c.33-.09.37-.43.37-1.57v-7.18c0-.51.08-.64.18-.64s.37.25.5.38,2.1,2.22,4.1,4.29c1.29,1.32,2.68,2.81,3.07,3.23l-.13-6.29c0-.81-.09-1.09-.49-1.17a4.74,4.74,0,0,0-.63-.06c-.09,0-.1-.07-.1-.11s.1-.09.25-.09c.59,0,1.21,0,1.36,0s.57,0,1.1,0c.14,0,.24,0,.24.09a.15.15,0,0,1-.15.11,1.45,1.45,0,0,0-.31,0c-.43.09-.46.34-.46,1.1l0,7.35c0,.82,0,.9-.1.9s-.27-.11-1-.77c-.13-.12-2-2-3.38-3.39s-3-3.12-3.36-3.56Z" transform="translate(-7049.92 -7168.06)"/><path class="cls-2" d="M7079.3,7178.66a3.87,3.87,0,0,0-3.57-3.22c-3.21-.26-6,1.46-9.09,2-.25.05-.58-.48-.89-.78a2.44,2.44,0,0,0-.42-4.15,3.72,3.72,0,0,1,0-1.41c.14-.11,1.2.09,1.36,0a3.17,3.17,0,0,0,0-1.53c-.1-.13-1.3,0-1.37-.08s0-1.23-.08-1.32a1.47,1.47,0,0,0-.6-.07,1.52,1.52,0,0,0-.6.07c-.11.09,0,1.24-.07,1.32s-1.27-.05-1.37.08a3.17,3.17,0,0,0,0,1.53c.15.13,1.22-.07,1.36,0a3.94,3.94,0,0,1,0,1.41,2.44,2.44,0,0,0-.42,4.15c-.31.3-.64.83-.89.78-3.11-.54-5.88-2.26-9.09-2a3.87,3.87,0,0,0-3.57,3.22c-.57,3.27,1.78,5.79,2.92,8.56a7.52,7.52,0,0,1,.62,3.07h22.2a7.53,7.53,0,0,1,.63-3.07C7077.52,7184.45,7079.86,7181.93,7079.3,7178.66Zm-16,7.24c-.29,1.64-1.2,2.69-2,2.69a1.82,1.82,0,0,1-1.26-.5c-.5-.44-.91-1.16-.78-1.58.11-.15,1.46.06,1.55-.08a2.53,2.53,0,0,0-.31-1.31c-.15-.14-1.37,0-1.53-.09s-.31-1.43-.48-1.51c0,0-1.29-.2-1.38,0s.43,1.27.34,1.45-1.79-.16-1.82,0a3,3,0,0,0,.26,1.29,8.2,8.2,0,0,0,1.75.15,1.6,1.6,0,0,1,.42,1.29c0,.66-.51,1-1.34.78-1.53-.44-3.44-3.77-4.57-6.08-.83-1.7-1.34-4.48.85-5.31a6.43,6.43,0,0,1,4.16.2,21.74,21.74,0,0,1,4.64,1.78c.29.17-.34,0,.69,2.33A10.06,10.06,0,0,1,7063.33,7185.9Zm9.19,2.6c-.83.23-1.35-.12-1.34-.78a1.56,1.56,0,0,1,.42-1.29,8.2,8.2,0,0,0,1.75-.15,3,3,0,0,0,.26-1.29c0-.19-1.73.16-1.82,0s.43-1.27.34-1.45-1.38,0-1.38,0c-.17.08-.32,1.38-.48,1.51s-1.38-.05-1.53.09a2.64,2.64,0,0,0-.32,1.31c.1.14,1.45-.07,1.56.08.13.42-.28,1.14-.78,1.58a1.82,1.82,0,0,1-1.26.5c-.76,0-1.67-1.05-2-2.69a10.19,10.19,0,0,1,.76-4.48c1-2.3.41-2.16.7-2.33a21.53,21.53,0,0,1,4.64-1.78,6.43,6.43,0,0,1,4.16-.2c2.19.83,1.68,3.61.85,5.31C7076,7184.73,7074.05,7188.06,7072.52,7188.5Z" transform="translate(-7049.92 -7168.06)"/><polygon class="cls-2" points="14.86 23.75 14.61 23.75 3.38 23.75 3.38 25.68 14.61 25.68 14.86 25.68 26.08 25.68 26.08 23.75 14.86 23.75"/><path class="cls-3" d="M7090,7191.12a8.62,8.62,0,0,1-2.72-6.66,9,9,0,0,1,2.51-6.14c1.35-1.35,3.4-2.41,6.86-2.41a19.5,19.5,0,0,1,3.26.27,18.31,18.31,0,0,0,2.3.34c.25,0,.29.11.29.25s-.07.45-.11,1.26,0,2-.07,2.31-.07.48-.2.48-.18-.16-.18-.48a3.11,3.11,0,0,0-.95-2.29,7.5,7.5,0,0,0-4.49-1.28c-3,0-4.39.88-5.18,1.64-1.64,1.57-2,3.58-2,5.87a8.13,8.13,0,0,0,8.12,8.23c1.68,0,3-.2,3.91-1.12a4.26,4.26,0,0,0,.83-1.89c.05-.25.09-.34.23-.34s.16.16.16.34a23,23,0,0,1-.5,2.88c-.13.42-.18.47-.58.65a13.05,13.05,0,0,1-4,.51C7094,7193.54,7091.74,7192.71,7090,7191.12Z" transform="translate(-7049.92 -7168.06)"/><path class="cls-3" d="M7112.61,7177.83c4.5,0,7.86,2.84,7.86,7.5a7.85,7.85,0,0,1-8,8.17c-5.47,0-7.75-4.26-7.75-7.85A7.74,7.74,0,0,1,7112.61,7177.83Zm.42,14.91c1.8,0,5.52-1,5.52-6.85,0-4.8-2.92-7.38-6.08-7.38-3.33,0-5.83,2.2-5.83,6.58C7106.64,7189.74,7109.44,7192.74,7113,7192.74Z" transform="translate(-7049.92 -7168.06)"/><path class="cls-3" d="M7126.3,7187.47c0,2.93.08,4.21.44,4.57s.84.46,2.4.46c1.06,0,1.94,0,2.42-.6a2.79,2.79,0,0,0,.52-1.2c0-.16.06-.26.18-.26s.12.08.12.3a12.77,12.77,0,0,1-.3,2c-.14.46-.2.54-1.26.54-2.88,0-4.2-.12-5.36-.12l-.82,0c-.4,0-.83,0-1.13,0s-.32,0-.32-.16,0-.12.16-.12a3.09,3.09,0,0,0,.6-.08c.4-.08.5-.52.58-1.1.1-.84.1-2.42.1-4.34v-3.51c0-3.12,0-3.68,0-4.32s-.2-1-.86-1.14a3.74,3.74,0,0,0-.68-.06c-.08,0-.16,0-.16-.12s.1-.16.32-.16c.9,0,2.15.06,2.25.06s1.56-.06,2.16-.06c.22,0,.32,0,.32.16s-.08.12-.16.12a4.7,4.7,0,0,0-.66.06c-.58.1-.74.44-.78,1.14s0,1.2,0,4.32Z" transform="translate(-7049.92 -7168.06)"/><path class="cls-3" d="M7135.5,7183.91c0-3.12,0-3.68,0-4.32s-.2-1-.86-1.14a3.74,3.74,0,0,0-.68-.06c-.08,0-.16,0-.16-.12s.1-.16.32-.16c.9,0,2.12.06,2.3.06s1.38-.06,2-.06c.22,0,.32,0,.32.16s-.08.12-.16.12a3,3,0,0,0-.5.06c-.54.08-.7.44-.74,1.14s0,1.2,0,4.32v2.8c0,2.87.64,4.11,1.5,4.93a3.89,3.89,0,0,0,3,1.1,4.2,4.2,0,0,0,3.14-1.44c.92-1.14,1.16-2.84,1.16-4.89v-2.5c0-3.12,0-3.68,0-4.32s-.2-1-.86-1.14a3.74,3.74,0,0,0-.68-.06c-.08,0-.16,0-.16-.12s.1-.16.32-.16c.9,0,2,.06,2.12.06s1.08-.06,1.68-.06c.22,0,.32,0,.32.16s-.08.12-.16.12a1.74,1.74,0,0,0-.5.06c-.54.1-.7.44-.74,1.14s0,1.2,0,4.32v2.14c0,2.15-.24,4.55-1.84,6a5.86,5.86,0,0,1-4.12,1.48,6.12,6.12,0,0,1-4.11-1.42c-1-.94-1.74-2.34-1.74-5.25Z" transform="translate(-7049.92 -7168.06)"/><path class="cls-3" d="M7167.72,7190.64c.08.72.22,1.84,1.08,2.12a4.34,4.34,0,0,0,1.3.18c.1,0,.16,0,.16.1s-.18.18-.42.18c-.44,0-2.6-.06-3.34-.12-.46,0-.56-.1-.56-.2s0-.12.14-.14.12-.36.08-.72l-1-10.31h-.06l-4.9,10.39c-.42.88-.48,1.06-.66,1.06s-.24-.2-.62-.92c-.52-1-2.24-4.44-2.34-4.64s-2.42-5.15-2.63-5.69h-.08l-.8,9.27c0,.32,0,.68,0,1a.64.64,0,0,0,.52.62,3.69,3.69,0,0,0,.76.1c.07,0,.16,0,.16.1s-.12.18-.36.18c-.74,0-1.7-.06-1.86-.06s-1.14.06-1.68.06c-.2,0-.34,0-.34-.18s.1-.1.2-.1a2.57,2.57,0,0,0,.6-.06c.66-.12.72-.9.8-1.66l1.44-13c0-.22.1-.36.22-.36s.2.08.3.3l6.11,12.57,5.88-12.55c.08-.18.16-.32.3-.32s.2.16.24.54Z" transform="translate(-7049.92 -7168.06)"/><path class="cls-3" d="M7173.35,7183.91c0-3.12,0-3.68,0-4.32s-.2-1-.86-1.14a3.74,3.74,0,0,0-.68-.06c-.08,0-.16,0-.16-.12s.1-.16.32-.16c.9,0,2.16.06,2.26.06.48,0,1.26-.06,2.18-.06,3.28,0,4,2,4,3,0,1.64-.94,2.62-1.88,3.6a4.67,4.67,0,0,1,3.46,4.21c0,2.14-1.68,4.36-5.1,4.36-.46,0-2.5-.12-2.66-.12s-1.36.06-2,.06c-.22,0-.32,0-.32-.16s0-.12.16-.12a3.09,3.09,0,0,0,.6-.08c.4-.08.5-.52.58-1.1.1-.84.1-2.42.1-4.34Zm1.6.44c0,.14,0,.18.14.22a7.07,7.07,0,0,0,1.22.08c1.12,0,1.4,0,1.82-.52a3.09,3.09,0,0,0,.72-2c0-1.66-.74-3.44-2.7-3.44a4.47,4.47,0,0,0-1,.1c-.18,0-.24.1-.24.22Zm0,2.12c0,1.53,0,4,0,4.31.06,1,.06,1.26.68,1.56a4.7,4.7,0,0,0,1.76.3,2.67,2.67,0,0,0,2.82-2.84,4.77,4.77,0,0,0-1.94-4,3.31,3.31,0,0,0-1.66-.58c-.26,0-1.26,0-1.56,0-.08,0-.12,0-.12.14Z" transform="translate(-7049.92 -7168.06)"/><path class="cls-3" d="M7187.88,7187.42c0,1.92,0,3.5.1,4.34.06.58.18,1,.78,1.1a8.72,8.72,0,0,0,.9.08c.12,0,.16.06.16.12s-.1.16-.32.16c-1.1,0-2.36-.06-2.46-.06s-1.36.06-2,.06c-.22,0-.32,0-.32-.16s0-.12.16-.12a3.09,3.09,0,0,0,.6-.08c.4-.08.5-.52.58-1.1.1-.84.1-2.42.1-4.34v-3.51c0-3.12,0-3.68,0-4.32s-.24-1-.68-1.12a2.62,2.62,0,0,0-.62-.08c-.08,0-.16,0-.16-.12s.1-.16.32-.16c.66,0,1.92.06,2,.06s1.36-.06,2-.06c.22,0,.32,0,.32.16s-.08.12-.16.12a3,3,0,0,0-.5.06c-.54.1-.7.44-.74,1.14s0,1.2,0,4.32Z" transform="translate(-7049.92 -7168.06)"/><path class="cls-3" d="M7198.2,7178.61c.24-.66.32-.78.44-.78s.2.1.44.72,3.43,9,4.65,12.05c.72,1.78,1.3,2.1,1.72,2.22a2.58,2.58,0,0,0,.8.12c.12,0,.2,0,.2.12s-.18.16-.4.16-1.76,0-3.14,0c-.38,0-.6,0-.6-.14s.06-.12.14-.14.24-.22.12-.54l-1.85-4.91a.16.16,0,0,0-.18-.12h-4.3a.21.21,0,0,0-.2.15l-1.2,3.54a4.22,4.22,0,0,0-.28,1.34c0,.4.42.58.76.58h.2c.14,0,.2,0,.2.12s-.12.16-.3.16c-.48,0-1.34-.06-1.56-.06s-1.32.06-2.26.06c-.26,0-.38,0-.38-.16s.08-.12.18-.12l.58,0c.92-.12,1.32-.88,1.68-1.88Zm2.08,8c.1,0,.1-.06.08-.14l-1.9-5.4q-.15-.45-.3,0l-1.76,5.4c0,.1,0,.14.06.14Z" transform="translate(-7049.92 -7168.06)"/><path class="cls-3" d="M7215.58,7182.75c0-3.51,0-4.14,0-4.86s-.23-1.12-1-1.28a4.67,4.67,0,0,0-.76-.07c-.09,0-.18,0-.18-.13s.11-.18.36-.18c1,0,2.38.07,2.58.07s1.55-.07,2.23-.07c.25,0,.36,0,.36.18s-.09.13-.18.13a4,4,0,0,0-.56.07c-.61.09-.79.5-.83,1.28s-.05,1.35-.05,4.86v3.15c0,3.24.72,4.63,1.69,5.55a4.37,4.37,0,0,0,3.39,1.24,4.72,4.72,0,0,0,3.53-1.62c1-1.28,1.31-3.19,1.31-5.51v-2.81c0-3.51,0-4.14-.05-4.86s-.22-1.12-1-1.28a4.79,4.79,0,0,0-.77-.07c-.09,0-.18,0-.18-.13s.11-.18.36-.18c1,0,2.25.07,2.38.07s1.22-.07,1.89-.07c.25,0,.36,0,.36.18s-.09.13-.18.13a1.9,1.9,0,0,0-.56.07c-.61.11-.79.5-.83,1.28s-.05,1.35-.05,4.86v2.41c0,2.43-.27,5.12-2.07,6.72a6.55,6.55,0,0,1-4.63,1.66,6.93,6.93,0,0,1-4.63-1.59c-1.1-1.06-2-2.63-2-5.92Z" transform="translate(-7049.92 -7168.06)"/><path class="cls-3" d="M7235.2,7190.5c0,1.64.24,2.16.78,2.32a4.39,4.39,0,0,0,1,.12c.1,0,.16,0,.16.12s-.12.16-.36.16c-1.14,0-1.94-.06-2.12-.06s-1,.06-1.92.06c-.2,0-.32,0-.32-.16s.06-.12.16-.12a2.87,2.87,0,0,0,.82-.12c.5-.14.6-.72.6-2.54l0-11.45c0-.78.06-1,.22-1s.5.44.7.64,3.28,3.56,6.35,6.86c2,2.12,4.16,4.55,4.8,5.21l-.22-10.15c0-1.3-.16-1.74-.78-1.9a5.33,5.33,0,0,0-1-.1c-.14,0-.16-.06-.16-.14s.16-.14.4-.14c.9,0,1.86.06,2.08.06s.88-.06,1.7-.06c.22,0,.36,0,.36.14s-.08.14-.22.14a1.76,1.76,0,0,0-.48.06c-.66.14-.74.58-.74,1.78l0,11.71c0,1.32,0,1.42-.18,1.42s-.4-.22-1.46-1.28c-.22-.2-3.1-3.14-5.22-5.41-2.31-2.5-4.57-5-5.21-5.74Z" transform="translate(-7049.92 -7168.06)"/><path class="cls-3" d="M7254.38,7187.42c0,1.92,0,3.5.1,4.34.06.58.18,1,.78,1.1a8.72,8.72,0,0,0,.9.08c.12,0,.16.06.16.12s-.1.16-.32.16c-1.1,0-2.36-.06-2.46-.06s-1.36.06-2,.06c-.21,0-.31,0-.31-.16s0-.12.16-.12a3,3,0,0,0,.59-.08c.4-.08.5-.52.58-1.1.1-.84.1-2.42.1-4.34v-3.51c0-3.12,0-3.68,0-4.32s-.24-1-.68-1.12a2.61,2.61,0,0,0-.61-.08c-.09,0-.16,0-.16-.12s.1-.16.31-.16c.66,0,1.92.06,2,.06s1.36-.06,2-.06c.22,0,.32,0,.32.16s-.08.12-.16.12a3,3,0,0,0-.5.06c-.54.1-.7.44-.74,1.14s0,1.2,0,4.32Z" transform="translate(-7049.92 -7168.06)"/><path class="cls-3" d="M7266.16,7190.78c1.16-2.68,3.83-9.65,4.27-11.09a2.88,2.88,0,0,0,.18-.76.49.49,0,0,0-.26-.46,2.53,2.53,0,0,0-.76-.08c-.12,0-.22,0-.22-.12s.12-.16.44-.16c.8,0,1.72.06,2,.06s1-.06,1.56-.06c.22,0,.34,0,.34.14s-.08.14-.24.14a1.81,1.81,0,0,0-1,.24c-.26.18-.56.52-1.1,1.88-.22.56-1.22,3-2.23,5.42-1.22,2.91-2.12,5.07-2.58,6-.56,1.2-.64,1.52-.84,1.52s-.34-.28-.72-1.24l-4.9-12.25c-.44-1.12-.74-1.34-1.44-1.54a3.11,3.11,0,0,0-.76-.08c-.12,0-.16-.06-.16-.14s.2-.14.52-.14c1,0,2.1.06,2.34.06s1.1-.06,1.86-.06c.36,0,.54,0,.54.14s-.06.14-.2.14a2.33,2.33,0,0,0-.76.1.4.4,0,0,0-.26.4,7.67,7.67,0,0,0,.54,1.66Z" transform="translate(-7049.92 -7168.06)"/><path class="cls-3" d="M7277,7183.91c0-3.12,0-3.68,0-4.32s-.2-1-.86-1.14a3.74,3.74,0,0,0-.68-.06c-.08,0-.16,0-.16-.12s.1-.16.32-.16c.9,0,2.16.06,2.26.06s4.12,0,4.58,0a5.33,5.33,0,0,0,.86-.1c.1,0,.18-.1.27-.1s.09.08.09.18-.11.38-.17.94c0,.2-.06,1.08-.09,1.32s-.06.22-.14.22-.16-.1-.16-.26a2.15,2.15,0,0,0-.12-.72c-.14-.32-.34-.56-1.42-.68-.34,0-2.52-.06-2.74-.06s-.12.06-.12.2v5.52c0,.14,0,.2.12.2.26,0,2.72,0,3.18,0s.76-.08.94-.28.22-.26.3-.26.1,0,.1.16-.1.46-.16,1.12c0,.4-.08,1.14-.08,1.28s0,.38-.14.38-.14-.08-.14-.18a2,2,0,0,0-.08-.66c-.08-.28-.26-.62-1-.7-.54-.06-2.52-.1-2.86-.1a.13.13,0,0,0-.14.14v1.75c0,.68,0,3,0,3.42.06,1.38.36,1.64,2.32,1.64a5.74,5.74,0,0,0,1.92-.22c.51-.22.75-.62.9-1.44,0-.22.07-.3.17-.3s.12.16.12.3-.16,1.52-.26,1.94-.3.52-1.07.52c-3,0-4.36-.12-4.94-.12,0,0-.38,0-.8,0s-.86,0-1.16,0-.32,0-.32-.16,0-.12.16-.12a3.09,3.09,0,0,0,.6-.08c.4-.08.5-.52.58-1.1.1-.84.1-2.42.1-4.34Z" transform="translate(-7049.92 -7168.06)"/><path class="cls-3" d="M7288.28,7183.91c0-3.12,0-3.68,0-4.32s-.2-1-.86-1.14a3.74,3.74,0,0,0-.68-.06c-.08,0-.16,0-.16-.12s.1-.16.32-.16c.9,0,2.16.06,2.26.06s1.74-.06,2.36-.06a6.16,6.16,0,0,1,3.66.88,3.5,3.5,0,0,1,1.38,2.72c0,1.48-.62,3-2.42,4.62,1.64,2.09,3,3.87,4.16,5.11a4.12,4.12,0,0,0,2.43,1.44,4.8,4.8,0,0,0,.78.06c.1,0,.18.06.18.12s-.12.16-.48.16h-1.42a4.05,4.05,0,0,1-2.13-.38c-.86-.46-1.56-1.44-2.7-2.94-.84-1.1-1.78-2.43-2.18-2.95a.32.32,0,0,0-.26-.12l-2.46,0c-.1,0-.14.06-.14.16v.47c0,1.92,0,3.5.1,4.34.06.58.18,1,.78,1.1a8.72,8.72,0,0,0,.9.08c.12,0,.16.06.16.12s-.1.16-.32.16c-1.1,0-2.36-.06-2.46-.06s-1.28.06-1.88.06c-.22,0-.32,0-.32-.16s0-.12.16-.12a3.09,3.09,0,0,0,.6-.08c.4-.08.5-.52.58-1.1.1-.84.1-2.42.1-4.34Zm1.6,1.74a.26.26,0,0,0,.14.24,5.51,5.51,0,0,0,2.1.32,2.59,2.59,0,0,0,1.5-.38,3.65,3.65,0,0,0,1.22-3.08c0-2.5-1.32-4-3.46-4a6,6,0,0,0-1.34.12.24.24,0,0,0-.16.24Z" transform="translate(-7049.92 -7168.06)"/><path class="cls-3" d="M7302.59,7193c-.28-.14-.3-.22-.3-.76,0-1,.08-1.8.1-2.12s.06-.32.16-.32.14.06.14.22a3.52,3.52,0,0,0,.06.74,2.72,2.72,0,0,0,3,2,2.67,2.67,0,0,0,2.86-2.66c0-1.38-.58-2.18-2.3-3.59l-.9-.74c-2.12-1.74-2.6-3-2.6-4.34,0-2.14,1.6-3.6,4.14-3.6a7.76,7.76,0,0,1,1.86.2,3.27,3.27,0,0,0,.7.1c.16,0,.2,0,.2.14s-.08.76-.08,2.12c0,.32,0,.46-.14.46s-.14-.1-.16-.26a3.51,3.51,0,0,0-.26-1c-.12-.22-.66-1.06-2.5-1.06a2.27,2.27,0,0,0-2.46,2.32c0,1.14.56,1.82,2.44,3.36l.56.44c2.36,1.86,2.92,3.09,2.92,4.69a4.14,4.14,0,0,1-1.7,3.32,5.26,5.26,0,0,1-3,.84A6.07,6.07,0,0,1,7302.59,7193Z" transform="translate(-7049.92 -7168.06)"/><path class="cls-3" d="M7316.46,7187.42c0,1.92,0,3.5.1,4.34.06.58.18,1,.78,1.1a8.72,8.72,0,0,0,.9.08c.12,0,.16.06.16.12s-.1.16-.32.16c-1.1,0-2.36-.06-2.46-.06s-1.36.06-2,.06c-.22,0-.32,0-.32-.16s0-.12.16-.12a3.09,3.09,0,0,0,.6-.08c.4-.08.5-.52.58-1.1.1-.84.1-2.42.1-4.34v-3.51c0-3.12,0-3.68,0-4.32s-.24-1-.68-1.12a2.62,2.62,0,0,0-.62-.08c-.08,0-.16,0-.16-.12s.1-.16.32-.16c.66,0,1.92.06,2,.06s1.36-.06,2-.06c.22,0,.32,0,.32.16s-.08.12-.16.12a3,3,0,0,0-.5.06c-.54.1-.7.44-.74,1.14s0,1.2,0,4.32Z" transform="translate(-7049.92 -7168.06)"/><path class="cls-3" d="M7328.15,7187.42c0,1.92,0,3.5.1,4.34.06.58.18,1,.78,1.1a8.72,8.72,0,0,0,.9.08c.12,0,.16.06.16.12s-.1.16-.32.16c-1.1,0-2.36-.06-2.46-.06s-1.35.06-2,.06c-.22,0-.32,0-.32-.16s0-.12.16-.12a3.09,3.09,0,0,0,.6-.08c.4-.08.5-.52.58-1.1.1-.84.1-2.42.1-4.34V7179l-3,0c-1.24,0-1.72.16-2,.64a3.52,3.52,0,0,0-.34.62c-.06.16-.12.2-.2.2s-.1-.06-.1-.18.4-1.92.44-2.08.12-.38.2-.38a3.73,3.73,0,0,0,.88.24c.58.06,1.34.1,1.58.1h7.49a10.54,10.54,0,0,0,1.42-.1,4.82,4.82,0,0,1,.56-.1c.1,0,.1.12.1.24,0,.6-.06,2-.06,2.2s-.06.26-.14.26-.14-.06-.16-.34l0-.22c-.08-.6-.54-1.06-2.46-1.1l-2.52,0Z" transform="translate(-7049.92 -7168.06)"/><path class="cls-3" d="M7341.89,7188a4.23,4.23,0,0,0-.46-2.09c-.14-.32-2.82-4.72-3.52-5.76a5.6,5.6,0,0,0-1.36-1.48,1.91,1.91,0,0,0-.86-.32c-.1,0-.2,0-.2-.14s.08-.14.26-.14c.38,0,1.88.06,2,.06s.9-.06,1.68-.06c.22,0,.26.06.26.14s-.12.1-.3.18a.4.4,0,0,0-.26.36,1.71,1.71,0,0,0,.26.78c.32.58,3.31,5.74,3.67,6.32.38-.84,2.92-5.22,3.32-5.88a2,2,0,0,0,.34-1c0-.28-.08-.5-.32-.56s-.3-.1-.3-.2.12-.12.32-.12c.52,0,1.16.06,1.32.06s1.56-.06,1.94-.06c.14,0,.26,0,.26.12s-.1.16-.26.16a1.9,1.9,0,0,0-.92.28,3.81,3.81,0,0,0-1.06,1,63.74,63.74,0,0,0-3.82,6.36,4.76,4.76,0,0,0-.3,2v1.72c0,.32,0,1.16.06,2,0,.58.22,1,.82,1.1a8.72,8.72,0,0,0,.9.08c.12,0,.16.06.16.12s-.1.16-.32.16c-1.1,0-2.36-.06-2.46-.06s-1.35.06-1.95.06c-.22,0-.32,0-.32-.16s0-.12.16-.12a3.09,3.09,0,0,0,.6-.08c.39-.08.57-.52.62-1.1.06-.84.06-1.68.06-2Z" transform="translate(-7049.92 -7168.06)"/></svg>